<?xml version="1.0" standalone="no"?><!DOCTYPE svg PUBLIC "-//W3C//DTD SVG 1.1//EN" "http://www.w3.org/Graphics/SVG/1.1/DTD/svg11.dtd"><svg t="1682577857549" class="icon" viewBox="0 0 1024 1024" version="1.1" xmlns="http://www.w3.org/2000/svg" p-id="2619" xmlns:xlink="http://www.w3.org/1999/xlink" width="200" height="200"><path d="M928.137 271c17.497 0 31.713 14.042 32 31.47v0.541a32 32 0 0 1-1.413 9.404A465.423 465.423 0 0 1 885.926 455.3l61.162 35.33c14.259 8.237 19.145 26.471 10.914 40.734-8.143 14.112-26.085 19.044-40.275 11.16l-0.44-0.25-70.871-40.937a468.499 468.499 0 0 1-118.048 87.716l52.044 90.19c8.228 14.26 3.343 32.489-10.912 40.724-14.105 8.147-32.105 3.448-40.449-10.47l-0.256-0.437-55.239-95.724c-41.668 15.337-85.97 24.876-131.831 27.749l-0.001 96.016c0 16.569-13.432 30-30 30-16.569 0-30-13.431-30-30l-0.001-96.087c-45.635-2.967-89.716-12.534-131.182-27.846l-55.336 95.892c-8.14 14.108-26.079 19.038-40.264 11.156l-0.44-0.25c-14.256-8.234-19.14-26.464-10.913-40.723l52.172-90.412a468.502 468.502 0 0 1-117.822-87.697l-71.225 41.14c-14.108 8.15-32.112 3.45-40.459-10.473l-0.256-0.437c-8.23-14.263-3.345-32.497 10.914-40.734l61.547-35.553a465.422 465.422 0 0 1-72.63-142.662 32.25 32.25 0 0 1-1.413-8.766V303c0-17.673 14.326-32 32-32 14.491 0 26.733 9.633 30.671 22.846l0.11 0.382 1.383 4.395C181.14 461.968 332.764 575.69 506.938 577.97l5.338 0.035c176.408 0 330.601-114.37 383.696-279.382l1.38-4.387 0.114-0.39c3.89-13.051 15.882-22.61 30.142-22.846h0.53z" fill="#ffffff" p-id="2620"></path></svg>