<svg id="图层_1" data-name="图层 1" xmlns="http://www.w3.org/2000/svg" viewBox="0 0 1000 1000"><defs><style>.cls-1{fill:#d8d8d8;}</style></defs><polygon class="cls-1" points="500 1000 124.5 863.5 225.63 766.1 500 843.8 500 1000"/><polygon class="cls-1" points="500 699.3 324.87 669.53 424.53 573.06 500 581 500 699.3"/><polygon class="cls-1" points="500 1000 875.5 863.5 774.37 766.1 500 843.8 500 1000"/><polygon class="cls-1" points="500 699.3 675.13 669.53 575.47 573.06 500 581 500 699.3"/><polygon class="cls-1" points="500 0 124.5 136.5 225.63 233.9 500 156.2 500 0"/><polygon class="cls-1" points="500 300.7 324.87 330.47 424.53 426.94 500 419 500 300.7"/><polygon class="cls-1" points="500 0 875.5 136.5 774.37 233.9 500 156.2 500 0"/><polygon class="cls-1" points="500 300.7 675.13 330.47 575.47 426.94 500 419 500 300.7"/></svg>